<svg width="64" height="64" viewBox="0 0 64 64" fill="none" xmlns="http://www.w3.org/2000/svg">
<rect width="64" height="64" rx="16" fill="white"/>
<path d="M29.1875 14H20.1875C19.6053 14 19.1328 14.4725 19.1328 15.0547V20.7029C19.1328 21.2858 19.6053 21.7576 20.1875 21.7576H29.1875C29.7697 21.7576 30.2422 21.2858 30.2422 20.7029V15.0547C30.2422 14.4725 29.7697 14 29.1875 14ZM28.1328 19.6482L24.6588 21.2654L21.2422 19.6482V16.1094H28.1328V19.6482Z" fill="#525C74"/>
<path d="M30.2422 15.0547V20.7029C30.2422 21.2858 29.7697 21.7576 29.1875 21.7576H24.6587V21.3357L28.1328 19.6482V16.1094H24.6587V14H29.1875C29.7697 14 30.2422 14.4725 30.2422 15.0547Z" fill="#444E66"/>
<path d="M34.3203 23.5625L33.8984 46.4141C33.8984 48.4376 32.6173 48.6641 30.5938 48.6641L24.1672 50H21.1958L20.2578 49.6484L19.0864 50H17.6703C15.6467 50 14 48.3533 14 46.3297V26.2766L14.4219 25.25L14 24.1672V23.3178C14 21.2942 15.6467 19.6468 17.6703 19.6468H19.13L20.1172 20.3281L21.2422 19.6468H24.1672L27.9922 21.1719L31.5078 20.3984C33.0388 25.0538 34.314 21.5989 34.3203 23.5625Z" fill="#68B9CF"/>
<path d="M35.3175 23.3177V46.3294C35.3175 48.3532 33.6707 50 31.6469 50H24.6587V20.2799L25.7881 19.6471H31.647C33.6707 19.6471 35.3175 21.2939 35.3175 23.3177Z" fill="#68B9CF"/>
<path d="M35.3173 24.1672H26.2766V19.6468H24.1672V24.1672H21.2329L21.2394 19.6468H19.13L19.1235 24.1672H14V26.2766H19.1205L19.0864 50H21.1958L21.2299 26.2766H24.1672V50H26.2766V26.2766H35.3173V24.1672Z" fill="#4AB7D3"/>
<path d="M35.3175 24.1647H25.7881V19.6471H24.6587V50H25.7881V26.2823H35.3175V24.1647Z" fill="#42A8C3"/>
<path d="M40.1657 28.6824H33.999C32.0014 28.6824 30.3765 30.3073 30.3765 32.3049V34.2588C30.3765 34.8433 30.8508 35.3177 31.4353 35.3177H42.7294C43.3139 35.3177 43.7882 34.8434 43.7882 34.2588V32.3049C43.7882 30.3073 42.1633 28.6824 40.1657 28.6824ZM41.6706 33.2L37.0823 34.2547L32.4941 33.2V32.3049C32.4941 31.4748 33.1689 30.8 33.999 30.8H40.1657C40.9958 30.8 41.6706 31.4748 41.6706 32.3049V33.2H41.6706Z" fill="#525C74"/>
<path d="M43.7882 32.305V34.2589C43.7882 34.8433 43.3139 35.3177 42.7294 35.3177H37.0823V34.536L41.6705 33.2V32.305C41.6705 31.4748 40.9957 30.8 40.1655 30.8H37.0823V28.6823H40.1655C42.1633 28.6824 43.7882 30.3073 43.7882 32.305Z" fill="#444E66"/>
<path d="M50.0001 36.241V46.959C50.0001 48.6355 48.6356 50 46.9591 50H27.2057C25.5293 50 24.1648 48.6355 24.1648 46.959V36.241C24.1648 34.5645 25.5293 33.2 27.2057 33.2H46.9591C48.6356 33.2 50.0001 34.5644 50.0001 36.241Z" fill="#FFCAAF"/>
<path d="M49.9999 36.241V46.959C49.9999 48.6355 48.6355 50 46.959 50H37.0823V33.2H46.959C48.6355 33.2 49.9999 34.5644 49.9999 36.241Z" fill="#FFBFAB"/>
</svg>
