<svg width="64" height="64" viewBox="0 0 64 64" fill="none" xmlns="http://www.w3.org/2000/svg">
<rect width="64" height="64" rx="16" fill="white"/>
<g clip-path="url(#clip0_9_4989)">
<path d="M20.8334 25H12V52H20.8334V25Z" fill="#E8EAEA"/>
<path d="M52.0001 25H43.1667V52H52.0001V25Z" fill="#E8EAEA"/>
<path d="M12 25.5H52C52 24.5 51.1666 23.6666 50.1666 23.6666H13.8334C12.8334 23.6666 12 24.5 12 25.5Z" fill="#FFA679"/>
<path d="M43.1666 20.4999H20.8333V51.9999H43.1666V20.4999Z" fill="#F2F2F2"/>
<path d="M44.4167 18.6666H19.5834C19.0834 18.6666 18.6667 19.0833 18.6667 19.5833C18.6667 20.0833 19.0834 20.5 19.5834 20.5H44.4167C44.9167 20.5 45.3334 20.0833 45.3334 19.5833C45.3334 19.0833 44.9167 18.6666 44.4167 18.6666Z" fill="#FFA679"/>
<path d="M18.3334 27.5H14.5V31.75H18.3334V27.5Z" fill="#42A8C3"/>
<path d="M18.3334 33.4167H14.5V37.6667H18.3334V33.4167Z" fill="#42A8C3"/>
<path d="M18.3334 39.3333H14.5V43.5833H18.3334V39.3333Z" fill="#42A8C3"/>
<path d="M18.3334 45.2499H14.5V49.4999H18.3334V45.2499Z" fill="#42A8C3"/>
<path d="M49.5001 27.5H45.6667V31.75H49.5001V27.5Z" fill="#42A8C3"/>
<path d="M49.5001 33.4167H45.6667V37.6667H49.5001V33.4167Z" fill="#42A8C3"/>
<path d="M49.5001 39.3333H45.6667V43.5833H49.5001V39.3333Z" fill="#42A8C3"/>
<path d="M49.5001 45.2499H45.6667V49.4999H49.5001V45.2499Z" fill="#42A8C3"/>
<path d="M27.4999 34.9167H23.3333V39.1667H27.4999V34.9167Z" fill="#8ECBDB"/>
<path d="M36.4166 41.5833H27.5V51.9999H36.4166V41.5833Z" fill="#056D8A"/>
<path d="M52 50.25H12V52H52V50.25Z" fill="#ACB3BA"/>
<path d="M27.4999 23.0833H23.3333V27.3333H27.4999V23.0833Z" fill="#8ECBDB"/>
<path d="M27.4999 29.0001H23.3333V33.2501H27.4999V29.0001Z" fill="#8ECBDB"/>
<path d="M34.0831 23.0833H29.9165V27.3333H34.0831V23.0833Z" fill="#8ECBDB"/>
<path d="M34.0831 29.0001H29.9165V33.2501H34.0831V29.0001Z" fill="#8ECBDB"/>
<path d="M34.0831 34.9167H29.9165V39.1667H34.0831V34.9167Z" fill="#8ECBDB"/>
<path d="M40.6666 23.0833H36.5V27.3333H40.6666V23.0833Z" fill="#8ECBDB"/>
<path d="M40.6666 29.0001H36.5V33.2501H40.6666V29.0001Z" fill="#8ECBDB"/>
<path d="M40.6666 34.9167H36.5V39.1667H40.6666V34.9167Z" fill="#8ECBDB"/>
</g>
<defs>
<clipPath id="clip0_9_4989">
<rect width="40" height="40" fill="white" transform="translate(12 12)"/>
</clipPath>
</defs>
</svg>
